<?xml version="1.0" encoding="UTF-8" standalone="no"?>
<!-- Created with Inkscape (http://www.inkscape.org/) -->
<svg
   xmlns:svg="http://www.w3.org/2000/svg"
   xmlns="http://www.w3.org/2000/svg"
   version="1.0"
   width="150"
   height="180.07001"
   id="svg4605">
  <defs
     id="defs4608" />
  <path
     d="M 149.8407,60.396568 L 149.8407,0.16160823 L 89.546,0.16160823 L 89.546,60.396568 L 149.8407,60.396568 z "
     style="fill:#0071c4;fill-opacity:1;stroke:#323232;stroke-width:0.31859818;stroke-miterlimit:4;stroke-dasharray:none;stroke-opacity:1"
     id="path6455" />
  <path
     d="M 89.546,172.08514 C 108.21068,161.87932 120.3824,154.09169 129.80884,146.99554 C 142.19185,137.67371 146.64699,128.63198 149.8407,113.9808 L 149.8407,89.508478 L 89.546,89.508478 L 89.546,172.08514 z "
     style="fill:#0071c4;fill-opacity:1;stroke:#323232;stroke-width:0.31859818;stroke-miterlimit:4;stroke-dasharray:none;stroke-opacity:1"
     id="path6453" />
  <path
     d="M 0.15929909,89.508478 L 0.15929909,113.9808 C 0.40904709,126.83268 7.7728601,139.96115 36.73835,158.74385 C 43.09093,162.86319 51.4995,167.49716 60.37435,172.22453 L 60.37435,89.508478 L 0.15929909,89.508478 z "
     style="fill:#0071c4;fill-opacity:1;stroke:#323232;stroke-width:0.31859818;stroke-miterlimit:4;stroke-dasharray:none;stroke-opacity:1"
     id="path6451" />
  <path
     d="M 60.37435,0.16160823 L 0.15929909,0.16160823 L 0.15929909,60.396568 L 60.37435,60.396568 L 60.37435,0.16160823 z "
     style="fill:#0071c4;fill-opacity:1;stroke:#323232;stroke-width:0.31859818;stroke-miterlimit:4;stroke-dasharray:none;stroke-opacity:1"
     id="path6449" />
  <path
     d="M 60.37435,0.16160823 L 60.37435,60.396568 L 0.15929909,60.396568 L 0.15929909,89.508478 L 60.37435,89.508478 L 60.37435,172.22453 C 65.16673,174.77729 69.93761,177.35349 74.95022,179.91071 C 80.37728,177.08887 84.99545,174.57338 89.546,172.08514 L 89.546,89.508478 L 149.8407,89.508478 L 149.8407,60.396568 L 89.546,60.396568 L 89.546,0.16160823 L 60.37435,0.16160823 z "
     style="fill:white;fill-opacity:1;stroke:#323232;stroke-width:0.31859818;stroke-miterlimit:4;stroke-dasharray:none;stroke-opacity:1"
     id="rect4656" />
  <path
     d="M 30.7049,2.2922282 L 26.5233,23.220148 L 17.08483,16.649058 L 23.57626,26.445958 L 2.6085231,30.269128 L 23.51653,34.430818 L 16.94544,43.889208 L 26.74233,37.377858 L 30.56551,58.365508 L 34.74711,37.437588 L 44.18558,44.008678 L 37.69415,34.211788 L 58.6818,30.388608 L 37.75388,26.226918 L 44.32497,16.768538 L 34.52808,23.279888 L 30.7049,2.2922282 z "
     style="fill:white;fill-opacity:1;stroke:none;stroke-width:0.31859818;stroke-miterlimit:4;stroke-dasharray:none;stroke-opacity:1"
     id="path6433" />
</svg>
